<svg xmlns="http://www.w3.org/2000/svg" xmlns:xlink="http://www.w3.org/1999/xlink" width="308" height="622" viewBox="0 0 308 622">
    <defs>
        <filter id="a" width="162.1%" height="130.9%" x="-18.8%" y="-10.3%" filterUnits="objectBoundingBox">
            <feOffset dy="10" in="SourceAlpha" result="shadowOffsetOuter1"/>
            <feGaussianBlur in="shadowOffsetOuter1" result="shadowBlurOuter1" stdDeviation="10"/>
            <feColorMatrix in="shadowBlurOuter1" result="shadowMatrixOuter1" values="0 0 0 0 0 0 0 0 0 0 0 0 0 0 0 0 0 0 0.249945367 0"/>
            <feMerge>
                <feMergeNode in="shadowMatrixOuter1"/>
                <feMergeNode in="SourceGraphic"/>
            </feMerge>
        </filter>
        <path id="c" d="M56.147.034h195.005c32.126 0 57.098 12.82 57.098 56.132v502.17c0 23.126-1.113 63.289-54.238 63.289H48.352C25.186 621.625 0 607.658 0 568.037V56.167C0 9.94 28.885.033 56.147.033z"/>
        <filter id="b" width="149.3%" height="124.5%" x="-12.3%" y="-7.1%" filterUnits="objectBoundingBox">
            <feOffset dx="38" dy="32" in="SourceAlpha" result="shadowOffsetOuter1"/>
            <feGaussianBlur in="shadowOffsetOuter1" result="shadowBlurOuter1" stdDeviation="19"/>
            <feColorMatrix in="shadowBlurOuter1" values="0 0 0 0 0.0166930749 0 0 0 0 0.230583093 0 0 0 0 0.333519345 0 0 0 0.05 0"/>
        </filter>
        <path id="d" d="M194.467 22.001c11.296.16 16.256-9.86 16.388-16.855 0-3.71 1.07-4.93 5.25-4.93h24.186c13.84 0 29.75 6.36 29.75 30.85v522.206c0 19.718-10.5 30.849-33.889 30.849H31.382c-23.863 0-31.34-14.47-31.34-30.372V29.316C.041 9.28 14.36.057 27.725.057h26.888c3.819 0 4.614 2.226 4.614 4.77 0 2.545 1.373 16.909 17.183 17.015 13.365 0 102.941.16 118.056.16z"/>
        <filter id="e" width="101.1%" height="100.5%" x="-.6%" y="-.3%" filterUnits="objectBoundingBox">
            <feOffset in="SourceAlpha" result="shadowOffsetOuter1"/>
            <feGaussianBlur in="shadowOffsetOuter1" result="shadowBlurOuter1" stdDeviation=".5"/>
            <feColorMatrix in="shadowBlurOuter1" values="0 0 0 0 0 0 0 0 0 0 0 0 0 0 0 0 0 0 0.04 0"/>
        </filter>
        <path id="f" d="M0 0h14.951v14.947H0z"/>
    </defs>
    <g fill="none" fill-rule="evenodd" filter="url(#a)" opacity=".585">
        <use fill="#000" filter="url(#b)" xlink:href="#c"/>
        <use fill="#FFF" xlink:href="#c"/>
        <g transform="translate(18.25 23.034)">
            <use fill="#000" filter="url(#e)" xlink:href="#d"/>
            <use fill="#00B2A9" xlink:href="#d"/>
        </g>
        <path fill="#F0F3F5" d="M107.204 596.977h93.524a2.545 2.545 0 1 1 0 5.089h-93.524a2.545 2.545 0 1 1 0-5.089z"/>
        <g opacity=".4">
            <g fill="#000">
                <path fill-rule="nonzero" d="M262.76 36.607a1.59 1.59 0 0 0-1.59 1.59v3.817c0 .878.712 1.59 1.59 1.59h11.452a1.59 1.59 0 0 0 1.59-1.59v-3.817a1.59 1.59 0 0 0-1.59-1.59H262.76zm0-.636h11.452c1.23 0 2.227.997 2.227 2.226v3.817c0 1.23-.997 2.226-2.227 2.226H262.76a2.226 2.226 0 0 1-2.227-2.226v-3.817c0-1.23.997-2.226 2.227-2.226z"/>
                <path d="M262.76 37.243h11.452c.527 0 .954.427.954.954v3.817a.954.954 0 0 1-.954.954H262.76a.954.954 0 0 1-.954-.954v-3.817c0-.527.427-.954.954-.954zM277.395 38.874a1.273 1.273 0 0 1 0 2.463z"/>
            </g>
            <g transform="rotate(-45 161.39 -274.16)">
                <mask id="g" fill="#fff">
                    <use xlink:href="#f"/>
                </mask>
                <g fill="#000" mask="url(#g)">
                    <g transform="translate(-8.27 6.679)">
                        <ellipse cx="8.271" cy="8.269" rx="2.863" ry="2.862"/>
                        <path fill-rule="nonzero" d="M8.27 14.63a6.361 6.361 0 1 0 0-12.722 6.361 6.361 0 1 0 0 12.721zm0 1.908A8.27 8.27 0 1 1 8.27 0a8.27 8.27 0 1 1 0 16.538z"/>
                        <path fill-rule="nonzero" d="M8.27 12.085a3.817 3.817 0 1 0 .002-7.634 3.817 3.817 0 0 0-.001 7.634zm0 1.59A5.407 5.407 0 1 1 13.68 8.27a5.407 5.407 0 0 1-5.408 5.406z"/>
                    </g>
                </g>
            </g>
            <path fill="#000" d="M231.267 41.06c.351 0 .636.284.636.636v1.908a.636.636 0 0 1-.636.636h-1.272a.636.636 0 0 1-.637-.636v-1.908c0-.352.285-.636.637-.636h1.272zm3.5-1.59c.35 0 .635.284.635.636v3.498a.636.636 0 0 1-.636.636h-1.272a.636.636 0 0 1-.636-.636v-3.498c0-.352.284-.636.636-.636h1.272zm3.498-1.59c.352 0 .637.284.637.635v5.089a.636.636 0 0 1-.637.636h-1.272a.636.636 0 0 1-.636-.636v-5.089c0-.35.285-.636.636-.636h1.272zm3.5-1.59c.351 0 .636.284.636.635v6.679a.636.636 0 0 1-.636.636h-1.273a.636.636 0 0 1-.636-.636v-6.679c0-.351.285-.636.636-.636h1.273z"/>
            <g fill="#000" transform="translate(42.627 32.473)">
                <text fill-opacity=".87" font-family="PingFangTC-Semibold, PingFang TC" font-size="11.449" font-weight="500">
                    <tspan x="0" y="12">9 41</tspan>
                </text>
                <ellipse cx="8.589" cy="6.043" rx="1" ry="1"/>
                <ellipse cx="8.589" cy="9.859" rx="1" ry="1"/>
            </g>
        </g>
        <g fill="#F0F3F5" transform="translate(134.243 25.158)">
            <path d="M2.704 1.908H35.15a2.704 2.704 0 1 1 0 5.407H2.704a2.704 2.704 0 1 1 0-5.407z"/>
            <ellipse cx="52.17" cy="4.452" rx="4.454" ry="4.452"/>
        </g>
    </g>
</svg>
