<svg width="127" height="19" viewBox="0 0 127 19" version="1.1" xmlns="http://www.w3.org/2000/svg" preserveAspectRatio="xMidYMid meet"><path fill-rule="nonzero" d="M4.528 2.976v5.778H8.91c2.363 0 4.11-.431 4.11-2.889 0-2.458-1.747-2.89-4.11-2.89h-4.38zM10.287 0c4.578 0 7.261 1.811 7.261 5.865 0 4.053-2.683 5.864-7.261 5.864H4.528v2.373c0 .538-.492.992-1.132.992H1.132C.517 15.094 0 14.64 0 14.102V.992C0 .432.492 0 1.108 0h9.179zM22.988 8.215h5.587c-.074-1.616-.96-2.48-2.782-2.48-1.771 0-2.707.864-2.805 2.48zm.025 2.22c.172 1.726 1.058 2.481 3.076 2.481 1.034 0 1.944-.26 2.363-.712.32-.345.762-.561 1.378-.561h1.797c.418 0 .738.281.738.648 0 2.242-2.634 3.018-6.572 3.018-4.38 0-7.013-2.07-7.013-5.973 0-3.881 2.657-5.994 7.013-5.994 4.382 0 7.015 2.05 7.015 5.844v.603c0 .367-.32.647-.738.647h-9.057zM45.262 5.584c0 .367-.32.647-.738.647h-.394c-.566 0-1.206-.064-1.846-.064-1.23 0-2.215.625-3.101 1.552v6.729c0 .366-.32.646-.739.646h-2.682c-.419 0-.738-.28-.738-.646V4.204c0-.367.32-.646.738-.646h2.682c.419 0 .739.279.739.646v.67c1.378-.886 2.633-1.532 5.34-1.532.418 0 .739.28.739.646v1.596zM52.154 15.31c-3.446 0-5.168-1.51-5.168-4.744V.646c0-.366.319-.646.738-.646h2.682c.42 0 .739.28.739.647V4.16h3.346c.42 0 .74.281.74.648v1.25c0 .366-.32.647-.74.647h-3.346v3.86c0 1.466.861 2.242 2.116 2.242.64 0 1.108-.13 1.65-.13h.443c.418 0 .738.28.738.647v1.122c0 .323-.32.582-.738.647-.74.129-2.093.215-3.2.215M61.285 8.215h5.587c-.074-1.616-.96-2.48-2.78-2.48-1.773 0-2.709.864-2.807 2.48zm.025 2.22c.172 1.726 1.058 2.481 3.077 2.481 1.033 0 1.944-.26 2.362-.712.32-.345.763-.561 1.379-.561h1.797c.416 0 .737.281.737.648 0 2.242-2.634 3.018-6.57 3.018-4.381 0-7.015-2.07-7.015-5.973 0-3.881 2.657-5.994 7.014-5.994 4.38 0 7.015 2.05 7.015 5.844v.603c0 .367-.321.647-.74.647H61.31zM82.132 8.41c0-1.79-.764-2.524-2.093-2.524-1.033 0-1.796.582-2.559 1.51v7.052c0 .365-.32.646-.738.646H74.06c-.418 0-.738-.28-.738-.646V4.204c0-.366.32-.646.738-.646h2.683c.419 0 .738.28.738.646v.67c.96-.82 1.994-1.532 3.716-1.532 1.97 0 3.299.69 4.234 2.027 1.379-1.25 2.879-2.027 4.577-2.027 3.003 0 5.095 1.488 5.095 5.067v6.039c0 .365-.32.646-.738.646h-2.683c-.419 0-.739-.28-.739-.646V8.409c0-1.79-.762-2.523-2.091-2.523-.812 0-1.772.582-2.634 1.617.05.302.074.604.074.906v6.039c0 .365-.32.646-.738.646H82.87c-.418 0-.738-.28-.738-.646V8.409zM102.216 6.835v5.498c1.009.281 1.993.432 2.608.432 2.216 0 3.028-1.056 3.028-3.45 0-2.372-.812-3.428-2.78-3.428-.888 0-1.995.474-2.856.948m9.918 2.48c0 3.968-2.61 5.994-6.448 5.994-1.477 0-2.461-.259-3.47-.539v3.235c0 .366-.32.647-.739.647h-2.682c-.42 0-.738-.28-.738-.647v-13.8c0-.367.319-.647.738-.647h2.314c.418 0 .738.28.738.646v.323c1.107-.69 2.46-1.185 4.208-1.185 3.495 0 6.079 2.027 6.079 5.973M120.232 15.31c-4.036 0-6.596-.777-6.596-3.02 0-.366.32-.647.738-.647h1.797c.615 0 1.058.216 1.379.561.417.453 1.328.712 2.387.712 2.067 0 2.756-.41 2.756-1.013 0-1.79-9.082-.798-9.082-5.154 0-2.437 2.782-3.407 6.252-3.407 4.036 0 6.596.776 6.596 3.018 0 .367-.32.648-.739.648h-1.796c-.615 0-1.058-.215-1.378-.56-.419-.453-1.33-.712-2.388-.712-1.698 0-2.387.41-2.387 1.013 0 1.79 9.082.754 9.082 5.154 0 2.436-2.782 3.406-6.621 3.406"/></svg>
